<svg xmlns="http://www.w3.org/2000/svg" xmlns:xlink="http://www.w3.org/1999/xlink" width="187" zoomAndPan="magnify" viewBox="0 0 140.25 140.250003" height="187" preserveAspectRatio="xMidYMid meet" version="1.0"><defs><clipPath id="a6629619b9"><path d="M 2.789062 2 L 137.070312 2 L 137.070312 137 L 2.789062 137 Z M 2.789062 2 " clip-rule="nonzero"/></clipPath></defs><g clip-path="url(#a6629619b9)"><path fill="#000000" d="M 69.929688 2.792969 C 32.851562 2.792969 2.789062 32.769531 2.789062 69.753906 C 2.789062 106.734375 32.851562 136.710938 69.929688 136.710938 C 107.011719 136.710938 137.070312 106.734375 137.070312 69.753906 C 137.070312 32.769531 107.011719 2.792969 69.929688 2.792969 Z M 13.980469 69.753906 C 13.980469 38.933594 39.03125 13.953125 69.929688 13.953125 C 100.832031 13.953125 125.882812 38.933594 125.882812 69.753906 C 125.882812 94.863281 109.25 116.101562 86.371094 123.105469 C 86.996094 111.828125 86.78125 104.839844 85.726562 102.148438 C 84.613281 99.304688 83.707031 98.140625 83.164062 97.441406 C 82.808594 96.980469 82.605469 96.726562 82.605469 96.328125 C 82.605469 95.65625 83.078125 95.171875 84.027344 94.871094 C 92.269531 93.054688 97.796875 88 100.609375 79.714844 C 104.507812 68.230469 98.945312 59.878906 96.695312 56.5 C 96.507812 56.222656 96.34375 55.976562 96.210938 55.765625 C 94.460938 53.011719 96.753906 46.304688 99.492188 40.941406 C 90.183594 39.078125 86.625 43.390625 84.585938 45.867188 C 83.753906 46.875 83.175781 47.582031 82.558594 47.429688 C 82.007812 47.296875 81.417969 47.039062 80.707031 46.726562 C 78.675781 45.835938 75.675781 44.519531 69.929688 44.519531 C 62.804688 44.519531 58.085938 47.003906 57.363281 47.382812 C 57.300781 47.417969 57.265625 47.429688 57.265625 47.429688 C 53.523438 42.226562 48.203125 40.0625 41.3125 40.941406 C 43.210938 48.503906 43.351562 53.445312 41.738281 55.765625 C 39.320312 59.242188 34.785156 67.335938 38.304688 79.714844 C 41.824219 92.089844 54.644531 94.871094 57.082031 94.871094 L 57.097656 94.875 C 57.292969 94.917969 59.089844 95.304688 58.550781 96.816406 C 58.445312 97.21875 58.375 97.765625 58.292969 98.382812 C 58.039062 100.363281 57.695312 103.058594 55.789062 103.933594 C 53.289062 105.082031 47.777344 105.710938 45.46875 104.277344 C 44.699219 103.796875 44.148438 102.800781 43.484375 101.597656 C 42.152344 99.1875 40.371094 95.960938 35.496094 94.460938 C 28.1875 92.210938 28.644531 95.1875 30.46875 95.917969 C 30.871094 96.078125 31.402344 96.226562 32.011719 96.398438 C 34.164062 97.007812 37.261719 97.882812 38.847656 100.429688 C 39.3125 101.175781 39.792969 101.992188 40.28125 102.828125 C 41.929688 105.652344 43.703125 108.675781 45.46875 109.832031 C 46.996094 110.835938 50.660156 111.238281 56.457031 111.039062 C 56.203125 116.496094 56.070312 120.753906 56.050781 123.820312 C 31.863281 117.664062 13.980469 95.792969 13.980469 69.753906 Z M 13.980469 69.753906 " fill-opacity="0.85" fill-rule="evenodd"/></g></svg>