<svg xmlns="http://www.w3.org/2000/svg" xmlns:xlink="http://www.w3.org/1999/xlink" width="187" zoomAndPan="magnify" viewBox="0 0 140.25 140.250003" height="187" preserveAspectRatio="xMidYMid meet" version="1.0"><defs><clipPath id="f20e0fe907"><path d="M 0 0 L 139.503906 0 L 139.503906 139.503906 L 0 139.503906 Z M 0 0 " clip-rule="nonzero"/></clipPath></defs><path fill="#262626" d="M 34.875 44.386719 C 40.128906 44.386719 44.386719 40.128906 44.386719 34.875 C 44.386719 29.621094 40.128906 25.363281 34.875 25.363281 C 29.621094 25.363281 25.363281 29.621094 25.363281 34.875 C 25.363281 40.128906 29.621094 44.386719 34.875 44.386719 Z M 34.875 44.386719 " fill-opacity="1" fill-rule="nonzero"/><path fill="#262626" d="M 25.363281 57.070312 C 25.363281 53.570312 28.203125 50.730469 31.707031 50.730469 L 38.046875 50.730469 C 41.550781 50.730469 44.390625 53.570312 44.390625 57.070312 L 44.390625 107.800781 C 44.390625 111.300781 41.550781 114.140625 38.046875 114.140625 L 31.707031 114.140625 C 28.203125 114.140625 25.363281 111.300781 25.363281 107.800781 Z M 25.363281 57.070312 " fill-opacity="1" fill-rule="nonzero"/><path fill="#262626" d="M 63.410156 114.140625 L 69.753906 114.140625 C 73.253906 114.140625 76.09375 111.300781 76.09375 107.796875 L 76.09375 79.261719 C 76.09375 69.753906 95.117188 63.410156 95.117188 76.09375 L 95.117188 107.804688 C 95.117188 111.304688 97.957031 114.140625 101.457031 114.140625 L 107.800781 114.140625 C 111.300781 114.140625 114.140625 111.300781 114.140625 107.800781 L 114.140625 69.753906 C 114.140625 57.070312 104.628906 50.730469 91.945312 50.730469 C 79.261719 50.730469 76.09375 60.242188 76.09375 60.242188 L 76.09375 57.070312 C 76.09375 53.570312 73.257812 50.730469 69.753906 50.730469 L 63.410156 50.730469 C 59.910156 50.730469 57.066406 53.570312 57.066406 57.070312 L 57.066406 107.800781 C 57.070312 111.300781 59.910156 114.140625 63.410156 114.140625 Z M 63.410156 114.140625 " fill-opacity="1" fill-rule="nonzero"/><g clip-path="url(#f20e0fe907)"><path fill="#262626" d="M 120.480469 0 C 130.988281 0 139.503906 8.519531 139.503906 19.023438 L 139.503906 120.480469 C 139.503906 130.988281 130.988281 139.503906 120.480469 139.503906 L 19.023438 139.503906 C 8.519531 139.503906 0 130.988281 0 120.480469 L 0 19.023438 C 0 8.519531 8.519531 0 19.023438 0 Z M 120.480469 12.679688 C 123.984375 12.679688 126.824219 15.519531 126.824219 19.023438 L 126.824219 120.480469 C 126.824219 123.984375 123.984375 126.824219 120.480469 126.824219 L 19.023438 126.824219 C 15.519531 126.824219 12.679688 123.984375 12.679688 120.480469 L 12.679688 19.023438 C 12.679688 15.519531 15.519531 12.679688 19.023438 12.679688 Z M 120.480469 12.679688 " fill-opacity="1" fill-rule="evenodd"/></g></svg>