<svg xmlns="http://www.w3.org/2000/svg" xmlns:xlink="http://www.w3.org/1999/xlink" width="187" zoomAndPan="magnify" viewBox="0 0 140.25 140.250003" height="187" preserveAspectRatio="xMidYMid meet" version="1.0"><defs><clipPath id="7d2c8a2555"><path d="M 0 0 L 139.503906 0 L 139.503906 139.503906 L 0 139.503906 Z M 0 0 " clip-rule="nonzero"/></clipPath></defs><g clip-path="url(#7d2c8a2555)"><path fill="#262626" d="M 126.496094 97.914062 C 126.1875 104.714844 125.050781 108.410156 124.105469 110.863281 C 122.835938 114.117188 121.324219 116.445312 118.871094 118.882812 C 116.445312 121.324219 114.117188 122.832031 110.863281 124.085938 C 108.410156 125.046875 104.699219 126.1875 97.902344 126.511719 C 90.550781 126.835938 88.371094 126.902344 69.730469 126.902344 C 51.105469 126.902344 48.910156 126.835938 41.558594 126.511719 C 34.757812 126.1875 31.066406 125.046875 28.613281 124.085938 C 25.34375 122.832031 23.03125 121.324219 20.59375 118.882812 C 18.136719 116.445312 16.621094 114.117188 15.371094 110.863281 C 14.425781 108.410156 13.273438 104.714844 12.980469 97.914062 C 12.621094 90.5625 12.554688 88.351562 12.554688 69.746094 C 12.554688 51.105469 12.621094 48.910156 12.980469 41.558594 C 13.273438 34.757812 14.425781 31.066406 15.371094 28.59375 C 16.621094 25.34375 18.136719 23.03125 20.59375 20.589844 C 23.03125 18.152344 25.34375 16.640625 28.613281 15.371094 C 31.066406 14.410156 34.757812 13.285156 41.558594 12.960938 C 48.910156 12.636719 51.105469 12.554688 69.730469 12.554688 C 88.371094 12.554688 90.550781 12.636719 97.902344 12.960938 C 104.699219 13.285156 108.410156 14.410156 110.863281 15.371094 C 114.117188 16.640625 116.445312 18.152344 118.871094 20.589844 C 121.324219 23.03125 122.835938 25.34375 124.105469 28.59375 C 125.050781 31.066406 126.1875 34.757812 126.496094 41.558594 C 126.835938 48.910156 126.921875 51.105469 126.921875 69.746094 C 126.921875 88.351562 126.835938 90.5625 126.496094 97.914062 Z M 139.050781 40.984375 C 138.710938 33.554688 137.539062 28.476562 135.800781 24.054688 C 134.027344 19.46875 131.652344 15.582031 127.765625 11.695312 C 123.894531 7.824219 120.007812 5.449219 115.417969 3.65625 C 110.980469 1.933594 105.921875 0.746094 98.488281 0.425781 C 91.054688 0.0664062 88.679688 0 69.730469 0 C 50.796875 0 48.40625 0.0664062 40.972656 0.425781 C 33.554688 0.746094 28.5 1.933594 24.039062 3.65625 C 19.46875 5.449219 15.582031 7.824219 11.710938 11.695312 C 7.824219 15.582031 5.449219 19.46875 3.660156 24.054688 C 1.9375 28.476562 0.765625 33.554688 0.40625 40.984375 C 0.0820312 48.417969 0 50.796875 0 69.746094 C 0 88.679688 0.0820312 91.054688 0.40625 98.488281 C 0.765625 105.902344 1.9375 110.976562 3.660156 115.417969 C 5.449219 119.988281 7.824219 123.894531 11.710938 127.765625 C 15.582031 131.632812 19.46875 134.027344 24.039062 135.816406 C 28.5 137.539062 33.554688 138.710938 40.972656 139.050781 C 48.40625 139.394531 50.796875 139.476562 69.730469 139.476562 C 88.679688 139.476562 91.054688 139.394531 98.488281 139.050781 C 105.921875 138.710938 110.980469 137.539062 115.417969 135.816406 C 120.007812 134.027344 123.894531 131.632812 127.765625 127.765625 C 131.652344 123.894531 134.027344 119.988281 135.800781 115.417969 C 137.539062 110.976562 138.710938 105.902344 139.050781 98.488281 C 139.394531 91.054688 139.476562 88.679688 139.476562 69.746094 C 139.476562 50.796875 139.394531 48.417969 139.050781 40.984375 Z M 139.050781 40.984375 " fill-opacity="1" fill-rule="nonzero"/></g><path fill="#262626" d="M 69.730469 92.972656 C 56.898438 92.972656 46.484375 82.578125 46.484375 69.746094 C 46.484375 56.894531 56.898438 46.484375 69.730469 46.484375 C 82.5625 46.484375 92.988281 56.894531 92.988281 69.746094 C 92.988281 82.578125 82.5625 92.972656 69.730469 92.972656 Z M 69.730469 33.914062 C 49.949219 33.914062 33.929688 49.96875 33.929688 69.746094 C 33.929688 89.507812 49.949219 105.546875 69.730469 105.546875 C 89.507812 105.546875 105.546875 89.507812 105.546875 69.746094 C 105.546875 49.96875 89.507812 33.914062 69.730469 33.914062 Z M 69.730469 33.914062 " fill-opacity="1" fill-rule="nonzero"/></svg>