<!DOCTYPE svg PUBLIC "-//W3C//DTD SVG 1.1//EN" "http://www.w3.org/Graphics/SVG/1.1/DTD/svg11.dtd">
<!-- Uploaded to: SVG Repo, www.svgrepo.com, Transformed by: SVG Repo Mixer Tools -->
<svg fill="#fff" height="800px" width="800px" version="1.1" id="Capa_1" xmlns="http://www.w3.org/2000/svg" xmlns:xlink="http://www.w3.org/1999/xlink" viewBox="0 0 474.461 474.461" xml:space="preserve" stroke="#fff">
<g id="SVGRepo_bgCarrier" stroke-width="0"/>
<g id="SVGRepo_tracerCarrier" stroke-linecap="round" stroke-linejoin="round"/>
<g id="SVGRepo_iconCarrier"> <g> <path d="M313.71,119.93V15.502C313.71,6.936,306.777,0,298.195,0H15.5C6.954,0,0.003,6.936,0.003,15.502v282.693 c0,8.58,6.951,15.514,15.497,15.514h104.432V177.734c0-31.918,25.885-57.805,57.804-57.805H313.71z"/> <path d="M313.71,298.195v-62.658h-78.174v78.172h62.66C306.777,313.709,313.71,306.775,313.71,298.195z"/> <path d="M449.689,152.961H177.736c-13.695,0-24.775,11.096-24.775,24.773v271.951c0,13.678,11.079,24.775,24.775,24.775h271.953 c13.691,0,24.77-11.098,24.77-24.775V177.734C474.458,164.057,463.379,152.961,449.689,152.961z M424.914,424.914H202.505V202.506 h222.408V424.914z"/> </g> </g>
</svg>