<!DOCTYPE svg PUBLIC "-//W3C//DTD SVG 1.1//EN" "http://www.w3.org/Graphics/SVG/1.1/DTD/svg11.dtd">
<!-- Uploaded to: SVG Repo, www.svgrepo.com, Transformed by: SVG Repo Mixer Tools -->
<svg fill="#5933d3" width="800px" height="800px" viewBox="0 0 32 32" data-name="Layer 2" id="Layer_2" xmlns="http://www.w3.org/2000/svg">
<g id="SVGRepo_bgCarrier" stroke-width="0"/>
<g id="SVGRepo_tracerCarrier" stroke-linecap="round" stroke-linejoin="round"/>
<g id="SVGRepo_iconCarrier">
<title/>
<path d="M18.09,6.4a1.21,1.21,0,0,0-.63,0,1.46,1.46,0,0,0-.38,0c-4.74.17-8.65,1.82-8.67,7.16a13.75,13.75,0,0,0,6.77,11.81A1.15,1.15,0,0,0,16.79,25c3.47-2.44,7-6.42,7.58-10.8C24.86,10.22,21.69,7.2,18.09,6.4Zm-2.4,16.28a11,11,0,0,1-4.48-6.63,8.15,8.15,0,0,1,0-4.54c1-2.58,3.74-2.56,5.91-2.64a1.15,1.15,0,0,0,.34-.06C25.73,10.65,20,19.5,15.69,22.68Z"/>
<path d="M18,11.34a2,2,0,0,0-1.36-.25,1.27,1.27,0,0,0-.76-.08,3.17,3.17,0,0,0-2.43,3.76,3.33,3.33,0,0,0,3.94,2.57,3,3,0,0,0,2-3.91A3.66,3.66,0,0,0,18,11.34Zm-1.47,3.57a.72.72,0,0,1-.44-1.23,1.26,1.26,0,0,0,.72,0l.07.16a2.25,2.25,0,0,1,.23.66C17.16,14.76,16.93,15,16.56,14.91Z"/>
</g>
</svg>