<svg xmlns="http://www.w3.org/2000/svg" xmlns:xlink="http://www.w3.org/1999/xlink" width="500" zoomAndPan="magnify" viewBox="0 0 375 140.249994" height="187" preserveAspectRatio="xMidYMid meet" version="1.0"><defs><g/><clipPath id="885fa25eb1"><path d="M 6.558594 0.320312 L 145.742188 0.320312 L 145.742188 139.503906 L 6.558594 139.503906 Z M 6.558594 0.320312 " clip-rule="nonzero"/></clipPath><clipPath id="68bb82b4fc"><path d="M 76.152344 0.320312 C 37.71875 0.320312 6.558594 31.480469 6.558594 69.914062 C 6.558594 108.347656 37.71875 139.503906 76.152344 139.503906 C 114.585938 139.503906 145.742188 108.347656 145.742188 69.914062 C 145.742188 31.480469 114.585938 0.320312 76.152344 0.320312 Z M 76.152344 0.320312 " clip-rule="nonzero"/></clipPath></defs><g fill="#737373" fill-opacity="1"><g transform="translate(156.090469, 64.355895)"><g><path d="M 15.03125 0 L 0.28125 -39.25 L 12.453125 -39.25 L 17.046875 -26.296875 L 20.6875 -16.09375 L 24.328125 -26.296875 L 28.921875 -39.25 L 40.984375 -39.25 L 26.234375 0 Z M 15.03125 0 "/></g></g></g><g fill="#737373" fill-opacity="1"><g transform="translate(197.347477, 64.355895)"><g><path d="M 3.75 0 L 3.75 -29.65625 L 14.515625 -29.65625 L 14.515625 0 Z M 2.6875 -39.796875 C 2.6875 -41.671875 3.289062 -43.175781 4.5 -44.3125 C 5.71875 -45.457031 7.265625 -46.03125 9.140625 -46.03125 C 11.003906 -46.03125 12.539062 -45.457031 13.75 -44.3125 C 14.96875 -43.175781 15.578125 -41.671875 15.578125 -39.796875 C 15.578125 -37.972656 14.96875 -36.472656 13.75 -35.296875 C 12.539062 -34.117188 11.003906 -33.53125 9.140625 -33.53125 C 7.265625 -33.53125 5.71875 -34.117188 4.5 -35.296875 C 3.289062 -36.472656 2.6875 -37.972656 2.6875 -39.796875 Z M 2.6875 -39.796875 "/></g></g></g><g fill="#737373" fill-opacity="1"><g transform="translate(215.621641, 64.355895)"><g><path d="M 18.609375 0.84375 C 15.285156 0.84375 12.351562 0.179688 9.8125 -1.140625 C 7.269531 -2.472656 5.285156 -4.328125 3.859375 -6.703125 C 2.441406 -9.078125 1.734375 -11.796875 1.734375 -14.859375 C 1.734375 -17.921875 2.453125 -20.617188 3.890625 -22.953125 C 5.335938 -25.296875 7.328125 -27.140625 9.859375 -28.484375 C 12.398438 -29.828125 15.316406 -30.5 18.609375 -30.5 C 21.523438 -30.5 24.148438 -29.972656 26.484375 -28.921875 C 28.828125 -27.878906 30.753906 -26.40625 32.265625 -24.5 C 33.773438 -22.59375 34.738281 -20.347656 35.15625 -17.765625 L 25.0625 -17.765625 C 24.457031 -18.960938 23.601562 -19.894531 22.5 -20.5625 C 21.40625 -21.238281 20.144531 -21.578125 18.71875 -21.578125 C 16.8125 -21.578125 15.257812 -20.953125 14.0625 -19.703125 C 12.875 -18.453125 12.28125 -16.835938 12.28125 -14.859375 C 12.28125 -12.835938 12.875 -11.203125 14.0625 -9.953125 C 15.257812 -8.703125 16.8125 -8.078125 18.71875 -8.078125 C 20.25 -8.078125 21.582031 -8.46875 22.71875 -9.25 C 23.863281 -10.03125 24.703125 -11.097656 25.234375 -12.453125 L 35.4375 -12.453125 C 34.988281 -9.753906 33.992188 -7.40625 32.453125 -5.40625 C 30.921875 -3.40625 28.976562 -1.863281 26.625 -0.78125 C 24.269531 0.300781 21.597656 0.84375 18.609375 0.84375 Z M 18.609375 0.84375 "/></g></g></g><g fill="#737373" fill-opacity="1"><g transform="translate(252.67446, 64.355895)"><g><path d="M 18.84375 0 C 14.757812 0 11.660156 -0.976562 9.546875 -2.9375 C 7.441406 -4.90625 6.390625 -7.757812 6.390625 -11.5 L 6.390625 -21.1875 L 0.890625 -21.1875 L 0.890625 -29.65625 L 3.59375 -29.65625 C 5.269531 -29.65625 6.40625 -29.925781 7 -30.46875 C 7.601562 -31.007812 8.015625 -32.046875 8.234375 -33.578125 L 8.796875 -37.453125 L 17.15625 -37.453125 L 17.15625 -29.65625 L 24.4375 -29.65625 L 24.4375 -21.1875 L 17.15625 -21.1875 L 17.15625 -13.5625 C 17.15625 -10.570312 18.6875 -9.078125 21.75 -9.078125 L 24.828125 -9.078125 L 24.828125 0 Z M 18.84375 0 "/></g></g></g><g fill="#737373" fill-opacity="1"><g transform="translate(279.69331, 64.355895)"><g><path d="M 19 0.84375 C 15.5625 0.84375 12.546875 0.191406 9.953125 -1.109375 C 7.359375 -2.421875 5.335938 -4.265625 3.890625 -6.640625 C 2.453125 -9.015625 1.734375 -11.753906 1.734375 -14.859375 C 1.734375 -17.960938 2.453125 -20.691406 3.890625 -23.046875 C 5.335938 -25.398438 7.359375 -27.226562 9.953125 -28.53125 C 12.546875 -29.84375 15.5625 -30.5 19 -30.5 C 22.4375 -30.5 25.445312 -29.84375 28.03125 -28.53125 C 30.613281 -27.226562 32.625 -25.398438 34.0625 -23.046875 C 35.5 -20.691406 36.21875 -17.960938 36.21875 -14.859375 C 36.21875 -11.753906 35.5 -9.015625 34.0625 -6.640625 C 32.625 -4.265625 30.613281 -2.421875 28.03125 -1.109375 C 25.445312 0.191406 22.4375 0.84375 19 0.84375 Z M 12.28125 -14.859375 C 12.28125 -12.878906 12.914062 -11.253906 14.1875 -9.984375 C 15.457031 -8.710938 17.0625 -8.078125 19 -8.078125 C 20.976562 -8.078125 22.582031 -8.710938 23.8125 -9.984375 C 25.050781 -11.253906 25.671875 -12.878906 25.671875 -14.859375 C 25.671875 -16.835938 25.050781 -18.453125 23.8125 -19.703125 C 22.582031 -20.953125 20.976562 -21.578125 19 -21.578125 C 17.0625 -21.578125 15.457031 -20.953125 14.1875 -19.703125 C 12.914062 -18.453125 12.28125 -16.835938 12.28125 -14.859375 Z M 12.28125 -14.859375 "/></g></g></g><g fill="#737373" fill-opacity="1"><g transform="translate(317.643025, 64.355895)"><g><path d="M 3.75 0 L 3.75 -29.65625 L 11.5 -29.65625 L 12.84375 -25.953125 C 13.769531 -27.265625 14.925781 -28.207031 16.3125 -28.78125 C 17.695312 -29.363281 19.414062 -29.65625 21.46875 -29.65625 L 24.953125 -29.65625 L 24.953125 -20.015625 L 21.53125 -20.015625 C 19.132812 -20.015625 17.363281 -19.425781 16.21875 -18.25 C 15.082031 -17.070312 14.515625 -15.210938 14.515625 -12.671875 L 14.515625 0 Z M 3.75 0 "/></g></g></g><g fill="#737373" fill-opacity="1"><g transform="translate(344.325537, 64.355895)"><g><path d="M 10.8125 -42.109375 C 13.769531 -42.109375 16.039062 -41.3125 17.625 -39.71875 C 19.21875 -38.132812 20.015625 -35.863281 20.015625 -32.90625 L 20.015625 -24.828125 C 20.015625 -22.660156 21.097656 -21.578125 23.265625 -21.578125 L 24.609375 -21.578125 L 24.609375 -11.9375 L 23.265625 -11.9375 C 21.097656 -11.9375 20.015625 -10.851562 20.015625 -8.6875 L 20.015625 -0.609375 C 20.015625 2.296875 19.21875 4.539062 17.625 6.125 C 16.039062 7.71875 13.769531 8.515625 10.8125 8.515625 L 2.1875 8.515625 L 2.1875 -1.125 L 6.171875 -1.125 C 8.296875 -1.125 9.359375 -2.1875 9.359375 -4.3125 L 9.359375 -10.203125 C 9.359375 -13.566406 10.613281 -15.769531 13.125 -16.8125 C 10.613281 -17.820312 9.359375 -20.03125 9.359375 -23.4375 L 9.359375 -29.265625 C 9.359375 -31.390625 8.296875 -32.453125 6.171875 -32.453125 L 2.1875 -32.453125 L 2.1875 -42.109375 Z M 10.8125 -42.109375 "/></g></g></g><g fill="#737373" fill-opacity="1"><g transform="translate(156.090469, 116.90821)"><g><path d="M 27.578125 0 L 27.578125 -14.75 L 15.46875 -14.75 L 15.46875 0 L 4.15625 0 L 4.15625 -39.25 L 15.46875 -39.25 L 15.46875 -25.171875 L 27.578125 -25.171875 L 27.578125 -39.25 L 38.90625 -39.25 L 38.90625 0 Z M 27.578125 0 "/></g></g></g><g fill="#737373" fill-opacity="1"><g transform="translate(199.141253, 116.90821)"><g><path d="M 15.53125 0.84375 C 11.75 0.84375 8.75 -0.34375 6.53125 -2.71875 C 4.3125 -5.09375 3.203125 -8.28125 3.203125 -12.28125 L 3.203125 -29.65625 L 13.953125 -29.65625 L 13.953125 -13.40625 C 13.953125 -11.675781 14.351562 -10.351562 15.15625 -9.4375 C 15.96875 -8.53125 17.0625 -8.078125 18.4375 -8.078125 C 19.894531 -8.078125 21.046875 -8.5625 21.890625 -9.53125 C 22.734375 -10.5 23.15625 -11.898438 23.15625 -13.734375 L 23.15625 -29.65625 L 33.921875 -29.65625 L 33.921875 0 L 26.234375 0 L 25.109375 -3.03125 C 22.835938 -0.445312 19.644531 0.84375 15.53125 0.84375 Z M 15.53125 0.84375 "/></g></g></g><g fill="#737373" fill-opacity="1"><g transform="translate(236.866747, 116.90821)"><g><path d="M 18.953125 12.78125 C 14.347656 12.78125 10.632812 11.757812 7.8125 9.71875 C 5 7.6875 3.441406 4.914062 3.140625 1.40625 L 13.515625 1.40625 C 13.734375 2.414062 14.300781 3.191406 15.21875 3.734375 C 16.132812 4.273438 17.300781 4.546875 18.71875 4.546875 C 22.425781 4.546875 24.28125 2.597656 24.28125 -1.296875 L 24.28125 -3.46875 C 21.882812 -1.90625 19.0625 -1.125 15.8125 -1.125 C 13.039062 -1.125 10.597656 -1.738281 8.484375 -2.96875 C 6.378906 -4.207031 4.726562 -5.925781 3.53125 -8.125 C 2.332031 -10.332031 1.734375 -12.894531 1.734375 -15.8125 C 1.734375 -18.726562 2.332031 -21.285156 3.53125 -23.484375 C 4.726562 -25.691406 6.378906 -27.410156 8.484375 -28.640625 C 10.597656 -29.878906 13.039062 -30.5 15.8125 -30.5 C 20.144531 -30.5 23.617188 -29.191406 26.234375 -26.578125 L 27.359375 -29.65625 L 35.09375 -29.65625 L 35.09375 -1.515625 C 35.09375 3.078125 33.644531 6.609375 30.75 9.078125 C 27.851562 11.546875 23.921875 12.78125 18.953125 12.78125 Z M 12.28125 -15.8125 C 12.28125 -13.976562 12.859375 -12.472656 14.015625 -11.296875 C 15.171875 -10.117188 16.664062 -9.53125 18.5 -9.53125 C 20.332031 -9.53125 21.816406 -10.117188 22.953125 -11.296875 C 24.097656 -12.472656 24.671875 -13.976562 24.671875 -15.8125 C 24.671875 -17.644531 24.097656 -19.140625 22.953125 -20.296875 C 21.816406 -21.453125 20.332031 -22.03125 18.5 -22.03125 C 16.664062 -22.03125 15.171875 -21.453125 14.015625 -20.296875 C 12.859375 -19.140625 12.28125 -17.644531 12.28125 -15.8125 Z M 12.28125 -15.8125 "/></g></g></g><g fill="#737373" fill-opacity="1"><g transform="translate(275.769407, 116.90821)"><g><path d="M 19 0.84375 C 15.5625 0.84375 12.546875 0.191406 9.953125 -1.109375 C 7.359375 -2.421875 5.335938 -4.265625 3.890625 -6.640625 C 2.453125 -9.015625 1.734375 -11.753906 1.734375 -14.859375 C 1.734375 -17.960938 2.453125 -20.691406 3.890625 -23.046875 C 5.335938 -25.398438 7.359375 -27.226562 9.953125 -28.53125 C 12.546875 -29.84375 15.5625 -30.5 19 -30.5 C 22.4375 -30.5 25.445312 -29.84375 28.03125 -28.53125 C 30.613281 -27.226562 32.625 -25.398438 34.0625 -23.046875 C 35.5 -20.691406 36.21875 -17.960938 36.21875 -14.859375 C 36.21875 -11.753906 35.5 -9.015625 34.0625 -6.640625 C 32.625 -4.265625 30.613281 -2.421875 28.03125 -1.109375 C 25.445312 0.191406 22.4375 0.84375 19 0.84375 Z M 12.28125 -14.859375 C 12.28125 -12.878906 12.914062 -11.253906 14.1875 -9.984375 C 15.457031 -8.710938 17.0625 -8.078125 19 -8.078125 C 20.976562 -8.078125 22.582031 -8.710938 23.8125 -9.984375 C 25.050781 -11.253906 25.671875 -12.878906 25.671875 -14.859375 C 25.671875 -16.835938 25.050781 -18.453125 23.8125 -19.703125 C 22.582031 -20.953125 20.976562 -21.578125 19 -21.578125 C 17.0625 -21.578125 15.457031 -20.953125 14.1875 -19.703125 C 12.914062 -18.453125 12.28125 -16.835938 12.28125 -14.859375 Z M 12.28125 -14.859375 "/></g></g></g><g fill="#737373" fill-opacity="1"><g transform="translate(313.719122, 116.90821)"><g><path d="M 4.984375 7.625 L 4.984375 -44.84375 L 14.859375 -44.84375 L 14.859375 7.625 Z M 4.984375 7.625 "/></g></g></g><g clip-path="url(#885fa25eb1)"><g clip-path="url(#68bb82b4fc)"><path fill="#737373" d="M 6.558594 0.320312 L 145.742188 0.320312 L 145.742188 139.503906 L 6.558594 139.503906 Z M 6.558594 0.320312 " fill-opacity="1" fill-rule="nonzero"/></g></g><g fill="#ffffff" fill-opacity="1"><g transform="translate(15.528959, 86.239001)"><g><path d="M 13.734375 0 L 0.25 -35.859375 L 11.375 -35.859375 L 15.578125 -24.015625 L 18.90625 -14.703125 L 22.234375 -24.015625 L 26.421875 -35.859375 L 37.4375 -35.859375 L 23.96875 0 Z M 13.734375 0 "/></g></g></g><g fill="#ffffff" fill-opacity="1"><g transform="translate(53.221793, 86.239001)"><g><path d="M 9.890625 -38.46875 C 12.585938 -38.46875 14.660156 -37.738281 16.109375 -36.28125 C 17.554688 -34.832031 18.28125 -32.757812 18.28125 -30.0625 L 18.28125 -22.6875 C 18.28125 -20.707031 19.269531 -19.71875 21.25 -19.71875 L 22.484375 -19.71875 L 22.484375 -10.90625 L 21.25 -10.90625 C 19.269531 -10.90625 18.28125 -9.914062 18.28125 -7.9375 L 18.28125 -0.5625 C 18.28125 2.101562 17.554688 4.160156 16.109375 5.609375 C 14.660156 7.054688 12.585938 7.78125 9.890625 7.78125 L 2 7.78125 L 2 -1.03125 L 5.640625 -1.03125 C 7.578125 -1.03125 8.546875 -2 8.546875 -3.9375 L 8.546875 -9.328125 C 8.546875 -12.398438 9.691406 -14.410156 11.984375 -15.359375 C 9.691406 -16.285156 8.546875 -18.300781 8.546875 -21.40625 L 8.546875 -26.734375 C 8.546875 -28.679688 7.578125 -29.65625 5.640625 -29.65625 L 2 -29.65625 L 2 -38.46875 Z M 9.890625 -38.46875 "/></g></g></g><g fill="#ffffff" fill-opacity="1"><g transform="translate(79.289242, 86.239001)"><g><path d="M 25.203125 0 L 25.203125 -13.46875 L 14.140625 -13.46875 L 14.140625 0 L 3.796875 0 L 3.796875 -35.859375 L 14.140625 -35.859375 L 14.140625 -23 L 25.203125 -23 L 25.203125 -35.859375 L 35.546875 -35.859375 L 35.546875 0 Z M 25.203125 0 "/></g></g></g><g fill="#ffffff" fill-opacity="1"><g transform="translate(118.620886, 86.239001)"><g><path d="M 4.5625 6.96875 L 4.5625 -40.96875 L 13.578125 -40.96875 L 13.578125 6.96875 Z M 4.5625 6.96875 "/></g></g></g></svg>